<svg width="100" height="132" viewBox="0 0 100 132" fill="none" xmlns="http://www.w3.org/2000/svg">
<g clip-path="url(#clip0)">
<path d="M97.4013 122.29V0H83.0013V8.52C83.0013 14.59 82.4113 119.64 81.0113 122.28H79.5312V131.73H84.4413V126.28H94.3913V131.73H99.3013V122.28H97.4013V122.29ZM92.1913 122.29H86.2613C87.3713 119.89 88.0013 15.54 88.0013 10.25V4H92.1913V122.29Z" fill="white"/>
<path d="M51.1581 90.8L50.5781 90.23L51.2481 84.77L56.1781 82.4L56.8581 83.58L56.2781 87.73L51.1581 90.8Z" fill="#195784"/>
<path d="M51.2502 25.33L50.9102 19.93L51.0802 12.09L56.1002 18.72L57.0502 24.29L56.1002 30.18L51.2502 25.33Z" fill="#195784"/>
<path d="M42.6106 0.849976H26.1406L92.1306 66.2L42.6106 0.849976Z" fill="#195784"/>
<path d="M0 11.42V25.02L92.13 66.2L0 11.42Z" fill="#195784"/>
<path d="M1.01172 41.15V52.72L92.1317 66.2L1.01172 41.15Z" fill="#195784"/>
<path d="M0 78.76V89.37L92.13 67.14L0 78.76Z" fill="#195784"/>
<path d="M0 107.71V121.52L92.13 66.2L0 107.71Z" fill="#195784"/>
<path d="M25.8281 131.92L43.5681 131.98L92.1281 66.2L25.8281 131.92Z" fill="#195784"/>
<path d="M15.81 0.25V4.96H5.72V63.5H0V0.25H15.81Z" fill="white"/>
<path d="M15.81 68.73V73.44H5.72V131.98H0V68.73H15.81Z" fill="white"/>
<path d="M34.5809 76.31V124.3C34.5809 128.37 32.4009 131.93 26.1709 131.93C19.8109 131.93 17.7109 128.37 17.7109 124.3V76.31C17.7109 72.24 19.8009 68.68 26.1709 68.68C32.4009 68.68 34.5809 72.23 34.5809 76.31ZM23.2909 75.62V124.98C23.2909 127.08 24.5109 127.77 26.1709 127.77C27.9109 127.77 29.0009 127.17 29.0009 124.98V75.62C29.0009 73.43 27.9109 72.83 26.1709 72.83C24.5109 72.83 23.2909 73.48 23.2909 75.62Z" fill="white"/>
<path d="M26.1592 0.25C19.7992 0.25 17.6992 3.8 17.6992 7.87V55.87C17.6992 59.94 19.7892 63.49 26.1592 63.49C32.3892 63.49 34.5692 59.94 34.5692 55.87V7.87C34.5792 3.8 32.3992 0.25 26.1592 0.25ZM29.3792 56.56C29.3792 58.74 28.0792 59.34 26.3292 59.34C24.6692 59.34 23.2792 58.66 23.2792 56.56V7.19C23.2792 5.05 24.4792 4.41 26.1392 4.41C27.8892 4.4 28.9992 5 28.9992 7.19L29.3792 56.56Z" fill="white"/>
<path d="M50.0091 68.72C48.1791 68.72 46.3391 69.79 45.5291 71.93V69.32H40.2891V131.97H45.5291V114.5C46.4291 116.6 47.9991 117.67 50.0091 117.67C53.2091 117.67 56.0991 115.57 56.0991 111.07V75.27C56.0991 70.56 53.2091 68.72 50.0091 68.72ZM51.2491 110.77C51.2491 112.61 49.7591 113.51 48.3891 113.51C47.0691 113.51 45.5291 112.61 45.5291 110.68V75.87C45.5291 73.94 46.8691 73.04 48.1891 73.04C49.5491 73.04 51.2391 73.94 51.2391 75.78V110.77H51.2491Z" fill="white"/>
<path d="M45.5291 0.83999V3.44999C46.3391 1.30999 48.1691 0.23999 50.0091 0.23999C53.2091 0.23999 56.0991 2.07999 56.0991 6.78999V42.59C56.0991 47.09 53.1991 49.19 50.0091 49.19C48.0091 49.19 46.4291 48.12 45.5291 46.02V63.5H40.2891V0.83999H45.5291ZM45.5291 7.39999V42.21C45.5291 44.14 47.0691 45.04 48.3891 45.04C49.7491 45.04 51.2491 44.14 51.2491 42.3V7.30999C51.2491 5.46999 49.7591 4.56999 48.3891 4.56999C47.0691 4.56999 45.5291 5.46999 45.5291 7.39999Z" fill="white"/>
<path d="M23.7703 35.64L25.0803 33.23L24.8303 26.18L17.1603 21.62L16.5703 24.44L17.2403 32.72L23.7703 35.64Z" fill="#195784"/>
<path d="M39.6513 58.44L39.2812 54.91L39.7913 51.77L46.7113 53.71L46.0713 55.61L46.2913 59.44L39.6513 58.44Z" fill="#195784"/>
<path d="M15.8086 79.23L17.7086 76.52L23.2886 75.82L24.8886 78.57L23.2886 83.75L17.7086 85.09L16.8286 81.98L15.8086 79.23Z" fill="#195784"/>
<path d="M92.1903 98.04C75.4203 98.04 61.8203 84.44 61.8203 67.67C61.8203 50.9 75.4203 37.3 92.1903 37.3V98.04Z" fill="white"/>
<path d="M69.7503 0C63.7803 0 61.8203 3.55 61.8203 7.62V124.1C61.8203 128.17 63.7803 131.72 69.7503 131.72C75.5903 131.72 77.6403 128.16 77.6403 124.1V7.62C77.6403 3.55 75.5903 0 69.7503 0ZM72.7703 124.79C72.7703 126.97 71.5403 127.57 69.9103 127.57C68.3603 127.57 67.0503 126.89 67.0503 124.79V6.94C67.0503 4.8 68.3603 4.16 69.9103 4.16C71.5403 4.16 72.7703 4.76 72.7703 6.94V124.79Z" fill="white"/>
<path d="M92.1881 42.75C81.3581 42.75 72.5781 51.53 72.5781 62.36C72.5781 73.19 81.3581 81.97 92.1881 81.97V42.75Z" fill="#C4222C"/>
</g>
<defs>
<clipPath id="clip0">
<rect width="99.31" height="131.98" fill="white"/>
</clipPath>
</defs>
</svg>
