<svg width="157" height="208" viewBox="0 0 157 208" fill="none" xmlns="http://www.w3.org/2000/svg">
<g clip-path="url(#clip0)">
<path d="M67.06 1.33H41.14L145 104.19L67.06 1.33Z" fill="#005C83"/>
<path d="M0 17.97V39.37L145 104.19L0 17.97Z" fill="#005C83"/>
<path d="M1.59 64.76V82.98L145 104.19L1.59 64.76Z" fill="#005C83"/>
<path d="M0 123.95V140.65L145 105.66L0 123.95Z" fill="#005C83"/>
<path d="M0 169.52V191.25L145 104.19L0 169.52Z" fill="#005C83"/>
<path d="M40.65 207.63L68.58 207.71L145 104.19L40.65 207.63Z" fill="#005C83"/>
<path d="M24.89 0.389999V7.8H9V99.93H0V0.389999H24.89Z" fill="#C4222C"/>
<path d="M24.89 108.16V115.57H9V207.7H0V108.15H24.89V108.16Z" fill="#C4222C"/>
<path d="M54.42 120.09V195.62C54.42 202.03 50.99 207.63 41.18 207.63C31.17 207.63 27.87 202.03 27.87 195.62V120.09C27.87 113.68 31.16 108.08 41.18 108.08C50.99 108.09 54.42 113.68 54.42 120.09ZM36.65 119.01V196.7C36.65 200.01 38.57 201.08 41.18 201.08C43.92 201.08 45.64 200.14 45.64 196.7V119.01C45.64 115.57 43.92 114.63 41.18 114.63C38.57 114.63 36.65 115.64 36.65 119.01Z" fill="#C4222C"/>
<path d="M41.18 0.389999C31.17 0.389999 27.87 5.98 27.87 12.39V87.94C27.87 94.34 31.16 99.94 41.18 99.94C50.99 99.94 54.42 94.35 54.42 87.94V12.39C54.42 5.99 50.99 0.389999 41.18 0.389999ZM46.25 89.01C46.25 92.45 44.2 93.39 41.45 93.39C38.84 93.39 36.65 92.31 36.65 89.01V11.31C36.65 7.94 38.54 6.93 41.14 6.93C43.88 6.93 45.64 7.87 45.64 11.31L46.25 89.01Z" fill="#C4222C"/>
<path d="M78.71 108.16C75.83 108.16 72.94 109.84 71.67 113.21V109.1H63.42V207.7H71.67V180.2C73.08 183.5 75.56 185.19 78.71 185.19C83.74 185.19 88.3 181.89 88.3 174.81V118.47C88.3 111.06 83.74 108.16 78.71 108.16ZM80.66 174.34C80.66 177.24 78.31 178.65 76.16 178.65C74.08 178.65 71.66 177.23 71.66 174.2V119.41C71.66 116.38 73.77 114.96 75.85 114.96C78 114.96 80.65 116.38 80.65 119.27V174.34H80.66Z" fill="#C4222C"/>
<path d="M153.3 192.46V0H130.64V13.41C130.64 22.96 129.71 188.3 127.51 192.46H125.18V207.33H132.91V198.76H148.57V207.33H156.3V192.46H153.3ZM145.1 192.46H135.77C137.5 188.69 138.5 24.45 138.5 16.14V6.3H145.1V192.46Z" fill="#C4222C"/>
<path d="M109.77 0C100.39 0 97.3 5.59 97.3 12V195.33C97.3 201.73 100.39 207.33 109.78 207.33C118.98 207.33 122.19 201.73 122.19 195.33V12C122.19 5.59 118.97 0 109.77 0ZM114.53 196.4C114.53 199.84 112.6 200.78 110.03 200.78C107.59 200.78 105.53 199.7 105.53 196.4V10.92C105.53 7.55 107.59 6.54 110.03 6.54C112.6 6.54 114.53 7.48 114.53 10.92V196.4Z" fill="#C4222C"/>
<path d="M71.66 1.33V5.44C72.94 2.07 75.82 0.389999 78.7 0.389999C83.73 0.389999 88.29 3.29 88.29 10.7V67.04C88.29 74.12 83.73 77.42 78.7 77.42C75.55 77.42 73.07 75.73 71.66 72.43V99.93H63.41V1.33H71.66ZM71.66 11.64V66.43C71.66 69.46 74.08 70.88 76.16 70.88C78.31 70.88 80.66 69.46 80.66 66.57V11.51C80.66 8.61 78.31 7.2 76.16 7.2C74.08 7.19 71.66 8.61 71.66 11.64Z" fill="#C4222C"/>
<path d="M145.09 154.29C118.7 154.29 97.3 132.89 97.3 106.5C97.3 80.11 118.7 58.71 145.09 58.71V154.29Z" fill="#C4222C"/>
<path d="M145.09 67.29C128.04 67.29 114.22 81.11 114.22 98.16C114.22 115.21 128.04 129.03 145.09 129.03V67.29Z" fill="white"/>
<path d="M37.42 56.1L39.47 52.29L39.09 41.21L27.01 34.03L26.08 38.46L27.13 51.5L37.42 56.1Z" fill="#005C83"/>
<path d="M62.41 91.97L61.83 86.41L62.62 81.49L73.51 84.53L72.5 87.52L72.86 93.55L62.41 91.97Z" fill="#005C83"/>
<path d="M24.89 124.7L27.87 120.44L36.65 119.33L39.17 123.65L36.65 131.81L27.87 133.93L26.5 129.02L24.89 124.7Z" fill="#005C83"/>
<path d="M80.51 142.91L79.61 142.01L80.66 133.41L88.41 129.68L89.49 131.54L88.58 138.07L80.51 142.91Z" fill="#005C83"/>
<path d="M80.66 39.86L80.12 31.37L80.39 19.03L88.3 29.46L89.79 38.23L88.3 47.5L80.66 39.86Z" fill="#005C83"/>
</g>
<defs>
<clipPath id="clip0">
<rect width="156.3" height="207.71" fill="white"/>
</clipPath>
</defs>
</svg>
